<?xml version="1.0" encoding="utf-8"?>
<!-- Generator: Adobe Illustrator 28.1.0, SVG Export Plug-In . SVG Version: 6.00 Build 0)  -->
<svg version="1.1" id="Logo" xmlns="http://www.w3.org/2000/svg" xmlns:xlink="http://www.w3.org/1999/xlink" x="0px" y="0px"
	 viewBox="0 0 1000 322.8" style="enable-background:new 0 0 1000 322.8;" xml:space="preserve">
<style type="text/css">
	.st0{fill:#EE7F00;}
	.st1{fill:#FFFFFF;}
	.st2{fill:none;}
</style>
<circle class="st2" cx="161.4" cy="161.4" r="161.4"/>
<g>
	<path class="st0" d="M55.6,163.1c26.7-0.8,56.7-5.5,63.8-24.4c0.7-8.2-9.1-14.9-19.2-19.5c-12.7-4-28.9-3.2-40-0.2
		c-5-1.9-10.4-5.4-13.4-8.7c21.1-10.3,46.8-19,77.9-10.9c13,2.8,24.5,8.6,36,14.4c12.7-6.7,20.9-16.6,26.5-26.3
		c7.3-13.9-3.1-29.7-20.5-40.7c-14-10.8-31.8-16.1-51.2-14.4l-15,1.8l-7.7-9.4c22.3-12.4,59.2-13.3,88.8-3.8
		c20.4,6.7,40.2,19.6,55,31.9c8.4-5.5,17-11.7,26.3-17.2C235,13.4,199.8,0,161.4,0C72.3,0,0,72.3,0,161.4c0,0.2,0,0.3,0,0.5
		C18.8,162.6,37.9,163.8,55.6,163.1z"/>
	<path class="st0" d="M8.7,177c-2.6-0.7-5.3-1.3-8.1-1.8c7,82.7,76.3,147.6,160.8,147.6c14.2,0,28-1.9,41.2-5.3
		C164.6,263.3,96.6,202,8.7,177z"/>
	<path class="st0" d="M302.4,240c-44.1-15-93.1-23.4-141.8-28.7c0,0,37.6,27.1,98.6,78.5C276.8,276.4,291.5,259.4,302.4,240z"/>
	<path class="st0" d="M207.9,194.1c51.4-6.3,96.4-38.1,113.5-53.8c-2.9-22-10.2-42.6-21-60.9C213.3,165,139.6,177.5,87.7,181.9
		C87.7,181.9,150.9,201.1,207.9,194.1z"/>
</g>
<g>
	<polygon points="376.5,79.4 404.7,79.4 404.7,143.4 477.8,143.4 477.8,79.4 506,79.4 506,240.2 477.8,240.2 477.8,167.7 
		404.7,167.7 404.7,240.2 376.5,240.2 	"/>
	<g>
		<path d="M605.6,181.9c-3.9,2.6-8.7,4.1-14.4,4.6s-11.4,1.3-17.1,2.4c-2.7,0.5-5.3,1.1-7.9,1.9c-2.6,0.8-4.8,2-6.8,3.4
			c-2,1.4-3.5,3.3-4.6,5.6c-1.1,2.3-1.7,5.1-1.7,8.4c0,2.9,0.8,5.3,2.5,7.2c1.6,2,3.6,3.5,6,4.6c2.3,1.1,4.9,1.9,7.7,2.4
			c2.8,0.5,5.3,0.7,7.5,0.7c2.8,0,5.9-0.4,9.2-1.1c3.3-0.7,6.4-2,9.3-3.8c2.9-1.8,5.4-4.1,7.3-6.9c1.9-2.8,2.9-6.2,2.9-10.2V181.9z
			 M631.3,214.3c0,3.2,0.4,5.4,1.2,6.8c0.8,1.3,2.4,2,4.8,2h2.7c1.1,0,2.3-0.1,3.6-0.4v17.8c-0.9,0.3-2.1,0.6-3.5,1
			c-1.4,0.4-2.9,0.7-4.4,1c-1.5,0.3-3,0.5-4.5,0.7c-1.5,0.2-2.8,0.2-3.8,0.2c-5.3,0-9.6-1.1-13.1-3.2c-3.5-2.1-5.7-5.8-6.8-11
			c-5.1,5-11.4,8.6-18.8,10.8c-7.4,2.2-14.6,3.4-21.5,3.4c-5.3,0-10.3-0.7-15.1-2.1c-4.8-1.4-9-3.5-12.7-6.3
			c-3.7-2.8-6.6-6.3-8.8-10.6c-2.2-4.3-3.3-9.3-3.3-15c0-7.2,1.3-13.1,3.9-17.6c2.6-4.5,6.1-8,10.4-10.6c4.3-2.5,9.1-4.4,14.4-5.5
			c5.3-1.1,10.7-2,16.1-2.6c4.6-0.9,9.1-1.5,13.3-1.9c4.2-0.4,7.9-1,11.1-1.9c3.2-0.9,5.8-2.3,7.7-4.2c1.9-1.9,2.8-4.7,2.8-8.4
			c0-3.3-0.8-6-2.4-8.1c-1.6-2.1-3.5-3.7-5.9-4.8c-2.3-1.1-4.9-1.9-7.8-2.3c-2.9-0.4-5.6-0.6-8.1-0.6c-7.2,0-13.1,1.5-17.8,4.5
			c-4.7,3-7.3,7.7-7.9,14h-25.7c0.5-7.5,2.3-13.7,5.4-18.7c3.2-4.9,7.2-8.9,12-11.9c4.9-3,10.4-5.1,16.5-6.3
			c6.1-1.2,12.4-1.8,18.9-1.8c5.7,0,11.3,0.6,16.9,1.8c5.5,1.2,10.5,3.2,15,5.9c4.4,2.7,8,6.2,10.7,10.5c2.7,4.3,4.1,9.5,4.1,15.6
			V214.3z"/>
		<path d="M656.7,123.8H681v17.1l0.4,0.4c3.9-6.4,9-11.5,15.3-15.2c6.3-3.7,13.3-5.5,20.9-5.5c12.8,0,22.8,3.3,30.2,9.9
			c7.3,6.6,11,16.5,11,29.7v79.9h-25.7V167c-0.3-9.2-2.3-15.8-5.9-19.9c-3.6-4.1-9.2-6.2-16.9-6.2c-4.4,0-8.3,0.8-11.7,2.4
			c-3.5,1.6-6.4,3.8-8.8,6.5c-2.4,2.8-4.3,6-5.6,9.8c-1.3,3.8-2,7.7-2,11.9v68.7h-25.7V123.8z"/>
	</g>
	<polygon points="779.6,123.8 874.1,123.8 874.1,141.8 807.5,219.9 877.5,219.9 877.5,240.2 775.1,240.2 775.1,222.2 839.5,144 
		779.6,144 	"/>
	<path d="M973.8,171.7c-0.3-4-1.2-8-2.6-11.7c-1.4-3.7-3.4-7-5.9-9.8s-5.5-5-9-6.8c-3.5-1.7-7.5-2.6-11.8-2.6
		c-4.5,0-8.6,0.8-12.3,2.4c-3.7,1.6-6.8,3.8-9.5,6.5c-2.6,2.8-4.7,6-6.3,9.8c-1.6,3.8-2.4,7.8-2.6,12.2H973.8z M914,188.6
		c0,4.5,0.6,8.9,1.9,13.1c1.3,4.2,3.2,7.9,5.7,11c2.6,3.2,5.8,5.7,9.7,7.5c3.9,1.9,8.6,2.8,14,2.8c7.5,0,13.5-1.6,18.1-4.8
		c4.6-3.2,8-8.1,10.2-14.5h24.3c-1.4,6.3-3.7,11.9-7,16.9c-3.3,4.9-7.3,9.1-11.9,12.5c-4.7,3.4-9.9,5.9-15.6,7.7
		c-5.8,1.7-11.8,2.6-18.1,2.6c-9.2,0-17.3-1.5-24.3-4.5c-7.1-3-13-7.2-17.9-12.6c-4.9-5.4-8.6-11.9-11-19.4
		c-2.5-7.5-3.7-15.8-3.7-24.8c0-8.3,1.3-16.1,3.9-23.5c2.6-7.4,6.4-14,11.3-19.6c4.9-5.6,10.8-10.1,17.7-13.4c6.9-3.3,14.7-5,23.4-5
		c9.2,0,17.4,1.9,24.6,5.7c7.3,3.8,13.3,8.9,18.1,15.2c4.8,6.3,8.3,13.5,10.5,21.7c2.2,8.2,2.7,16.6,1.7,25.3H914z"/>
</g>
</svg>
